{"title":"Thank You (2011) MPG Cam Rip *FIRST ON NET* DAYN EXCLUSIVE*","uid":6304242,"size":755002074,"categoryP":"video","categoryS":"movies","magnet":"?xt=urn:btih:8cdc860a4dc905714391fbdffaf4bd95adc70456&amp;dn=Thank+You+%282011%29+MPG+Cam+Rip+%2AFIRST+ON+NET%2A+DAYN+EXCLUSIVE%2A+&amp;tr=udp%3A%2F%2Ftracker.openbittorrent.com%3A80&amp;tr=udp%3A%2F%2Fopen.demonii.com%3A1337&amp;tr=udp%3A%2F%2Ftracker.coppersurfer.tk%3A6969&amp;tr=udp%3A%2F%2Fexodus.desync.com%3A6969","seeders":0,"leechers":0,"uploader":"arihantkatariya","files":2,"time":1302223973,"description":"Directed By Anees Bazmee\n\nA Ronnie Screwvala Production\n\nAkshay Kumar as Kishen, Sonam Kapoor as Sajana &amp; Bobby Deol as Raj\n\nIn\n\nThank You (2011) Cam Rip\n*FIRST ON NET*\n*DAYN EXCLUSIVE*\n\n[code]Format                           : MPEG-PS\nFile size                        : 720 MiB\nDuration                         : 2h 7mn\nOverall bit rate                 : 793 Kbps\n\nVideo\nID                               : 224 (0xE0)\nFormat                           : MPEG Video\nFormat version                   : Version 1\nFormat settings, BVOP            : Yes\nFormat settings, Matrix          : Default\nDuration                         : 2h 7mn\nBit rate mode                    : Variable\nBit rate                         : 585 Kbps\nWidth                            : 352 pixels\nHeight                           : 288 pixels\nDisplay aspect ratio             : 4:3\nFrame rate                       : 25.000 fps\nStandard                         : PAL\nColor space                      : YUV\nBit depth                        : 8 bits\nScan type                        : Progressive\nCompression mode                 : Lossy\nBits/(Pixel*Frame)               : 0.231\nStream size                      : 531 MiB (74%)\n\nAudio\nID                               : 192 (0xC0)\nFormat                           : MPEG Audio\nFormat version                   : Version 1\nFormat profile                   : Layer 2\nDuration                         : 2h 7mn\nBit rate mode                    : Constant\nBit rate                         : 192 Kbps\nChannel(s)                       : 2 channels\nSampling rate                    : 44.1 KHz\nCompression mode                 : Lossy\nStream size                      : 174 MiB (24%)[/code]\n","torrent":{"xt":"urn:btih:8cdc860a4dc905714391fbdffaf4bd95adc70456","amp;dn":"Thank+You+%282011%29+MPG+Cam+Rip+%2AFIRST+ON+NET%2A+DAYN+EXCLUSIVE%2A+","amp;tr":["udp%3A%2F%2Ftracker.openbittorrent.com%3A80","udp%3A%2F%2Fopen.demonii.com%3A1337","udp%3A%2F%2Ftracker.coppersurfer.tk%3A6969","udp%3A%2F%2Fexodus.desync.com%3A6969"],"infoHash":"8cdc860a4dc905714391fbdffaf4bd95adc70456","infoHashBuffer":{"type":"Buffer","data":[140,220,134,10,77,201,5,113,67,145,251,223,250,244,189,149,173,199,4,86]},"announce":[],"urlList":[]}}